<svg width="25" height="25" viewBox="0 0 25 25" fill="none" xmlns="http://www.w3.org/2000/svg">
<path d="M6.61376 23.53L1.41081e-05 25L1.47001 18.3862C0.501929 16.5755 -0.00307731 14.5533 1.41081e-05 12.5C1.41081e-05 5.59625 5.59626 0 12.5 0C19.4038 0 25 5.59625 25 12.5C25 19.4037 19.4038 25 12.5 25C10.4467 25.0031 8.42454 24.4981 6.61376 23.53V23.53Z" fill="#5956E9"/>
<path d="M12.248 18V10.752C12.248 10.5493 12.248 10.3307 12.248 10.096C12.2587 9.86133 12.2693 9.616 12.28 9.36C11.9173 9.712 11.5013 10.016 11.032 10.272C10.5627 10.5173 10.088 10.6933 9.608 10.8L9.288 9.312C9.50133 9.28 9.75733 9.20533 10.056 9.088C10.3653 8.97067 10.68 8.82133 11 8.64C11.32 8.45867 11.6133 8.26667 11.88 8.064C12.1467 7.85067 12.3547 7.64267 12.504 7.44H13.944V18H12.248Z" fill="white"/>
</svg>
