<svg width="13" height="10" viewBox="0 0 13 10" fill="none" xmlns="http://www.w3.org/2000/svg">
<path d="M9.94019 5.035L7.68433 7.29074C7.39144 7.58363 7.39144 8.0585 7.68433 8.3514C7.9506 8.61766 8.36726 8.64187 8.66087 8.42402L8.74499 8.3514L12.2805 4.81586L12.3491 4.73707L12.3896 4.6777L12.4387 4.58343L12.4715 4.49163L12.4874 4.42382L12.4963 4.36194L12.5 4.26832L12.4963 4.20913L12.4807 4.11518L12.4503 4.01591L12.4038 3.91736L12.369 3.86167C12.3434 3.82428 12.3139 3.78856 12.2805 3.7552L12.3491 3.834C12.3281 3.80616 12.3051 3.77983 12.2805 3.7552L8.74499 0.21967C8.4521 -0.0732233 7.97722 -0.0732233 7.68433 0.21967C7.41806 0.485936 7.39386 0.9026 7.61171 1.19621L7.68433 1.28033L9.94019 3.535L6.25019 3.53553C2.59872 3.53553 0.117675 5.61217 0.00425243 8.57259L0.000193596 8.78553C0.000193596 9.19975 0.33598 9.53553 0.750194 9.53553C1.16441 9.53553 1.50019 9.19975 1.50019 8.78553C1.50019 6.65667 3.1922 5.12765 5.99258 5.03955L6.25019 5.03553L9.94019 5.035Z" fill="#6C6C72"/>
</svg>
